<?xml version="1.0" standalone="no"?>
<!DOCTYPE svg PUBLIC "-//W3C//DTD SVG 20010904//EN"
 "http://www.w3.org/TR/2001/REC-SVG-20010904/DTD/svg10.dtd">
<svg version="1.0" xmlns="http://www.w3.org/2000/svg"
 width="512.000000pt" height="512.000000pt" viewBox="0 0 512.000000 512.000000"
 preserveAspectRatio="xMidYMid meet">
<metadata>
Created by potrace 1.11, written by Peter Selinger 2001-2013
</metadata>
<g transform="translate(0.000000,512.000000) scale(0.100000,-0.100000)"
fill="#000000" stroke="none">
<path d="M1185 5114 c-146 -19 -204 -30 -295 -60 -205 -66 -353 -157 -510
-314 -156 -156 -248 -305 -314 -510 -64 -198 -61 -121 -61 -1670 0 -1549 -3
-1472 61 -1670 66 -204 157 -353 314 -510 218 -218 465 -336 775 -370 121 -13
2689 -13 2810 0 310 34 558 153 775 370 157 157 249 306 314 510 64 198 61
121 61 1670 0 1549 3 1472 -61 1670 -66 205 -158 354 -314 510 -153 153 -301
245 -497 311 -200 66 -107 62 -1638 65 -765 1 -1403 0 -1420 -2z m2905 -362
c321 -98 571 -350 662 -667 l23 -80 0 -1445 0 -1445 -23 -80 c-91 -320 -347
-576 -667 -667 l-80 -23 -1445 0 -1445 0 -80 23 c-320 91 -576 347 -667 667
l-23 80 0 1445 0 1445 23 80 c83 291 305 534 583 639 152 57 81 55 1634 53
l1430 -2 75 -23z"/>
<path d="M2370 4240 c-232 -32 -410 -102 -579 -228 -278 -206 -453 -514 -501
-882 -8 -58 -10 -260 -7 -620 4 -582 4 -586 69 -780 59 -179 164 -347 304
-486 191 -190 415 -304 683 -349 127 -22 486 -17 619 9 301 56 588 210 738
394 l44 54 0 604 0 604 -590 0 -590 0 0 -170 0 -170 370 0 370 0 -2 -382 -3
-382 -59 -48 c-152 -122 -319 -176 -571 -185 -225 -8 -352 19 -502 108 -140
83 -300 277 -363 441 -73 189 -73 191 -77 737 -3 324 -1 523 7 577 16 123 46
228 96 333 116 245 298 404 533 462 73 19 105 21 235 16 169 -5 233 -19 343
-72 131 -64 226 -162 297 -303 35 -70 66 -191 66 -259 l0 -53 215 0 215 0 0
54 c0 149 -50 341 -120 461 -156 266 -418 440 -755 500 -105 19 -392 28 -485
15z"/>
</g>
</svg>
